<svg id="visual" viewBox="0 0 300 1000" width="300" height="1000" xmlns="http://www.w3.org/2000/svg" xmlns:xlink="http://www.w3.org/1999/xlink" version="1.1"><rect x="0" y="0" width="300" height="1000" fill="#ff9b71"></rect><path d="M192 0L178.7 23.8C165.3 47.7 138.7 95.3 132 143C125.3 190.7 138.7 238.3 146.2 286C153.7 333.7 155.3 381.3 153 428.8C150.7 476.3 144.3 523.7 139.8 571.2C135.3 618.7 132.7 666.3 138.5 714C144.3 761.7 158.7 809.3 167.2 857C175.7 904.7 178.3 952.3 179.7 976.2L181 1000L0 1000L0 976.2C0 952.3 0 904.7 0 857C0 809.3 0 761.7 0 714C0 666.3 0 618.7 0 571.2C0 523.7 0 476.3 0 428.8C0 381.3 0 333.7 0 286C0 238.3 0 190.7 0 143C0 95.3 0 47.7 0 23.8L0 0Z" fill="#ffffff" stroke-linecap="round" stroke-linejoin="miter"></path></svg>